<?xml version="1.0" encoding="utf-8"?>
<!-- Generator: Adobe Illustrator 21.0.0, SVG Export Plug-In . SVG Version: 6.00 Build 0)  -->
<svg version="1.1" id="图层_1" xmlns="http://www.w3.org/2000/svg" xmlns:xlink="http://www.w3.org/1999/xlink" x="0px" y="0px"
	 viewBox="0 0 1024 1024" style="enable-background:new 0 0 1024 1024;" xml:space="preserve">
<style type="text/css">
	.st0{fill:#3FA9F5;}
	.st1{fill:#ED1C24;}
	.st2{fill:#FFFFFF;}
	.st3{fill:#FFFF00;}
</style>
<circle class="st0" cx="512.5" cy="512.4" r="447.8"/>
<g>
	<g>
		<path class="st1" d="M864.7,235.8H160.5c-23.7,29.4-42.4,61.8-58.1,96.6h820.3C907,297.6,888.4,265.2,864.7,235.8z"/>
	</g>
</g>
<path class="st2" d="M855,551.9c0,189.1-153.3,342.4-342.4,342.4S170.1,741,170.1,551.9H855z"/>
<g>
	<path class="st3" d="M512.5,465.2c-36.9,0-67-30-67-67s30-67,67-67c36.9,0,67,30,67,67S549.5,465.2,512.5,465.2z"/>
	<path d="M582.8,398.3c0-38.8-31.4-70.2-70.2-70.2s-70.2,31.5-70.2,70.2c0,38.5,31,69.6,69.3,70.2c0,0,0,0.1,0.1,0.1h2.6
		c0.1,0,0.1-0.2,0.2-0.2C552.4,467.2,582.8,436.4,582.8,398.3z M454.8,371.9h115.6c1.3,2.8,2.2,5.8,3.1,8.8H451.6
		C452.5,377.7,453.5,374.7,454.8,371.9z M512.5,334.6c22.1,0,41.6,11.4,53,28.5h-106C470.9,346,490.4,334.6,512.5,334.6z
		 M517.4,461.4v-21.1c2.5-1.6,4.4-3.8,4.4-7c0-4.8-3.9-8.8-8.8-8.8c-4.8,0-8.8,3.9-8.8,8.8c0,3.1,1.9,5.4,4.4,7v21.2
		c-33.3-2.1-59.8-29.5-59.8-63.3c0-3,0.5-5.9,0.9-8.8h125.5c0.4,2.9,0.9,5.8,0.9,8.8C576.2,431.7,550.2,458.9,517.4,461.4z"/>
</g>
</svg>
